<svg width="75" height="13" viewBox="0 0 75 13" fill="none" xmlns="http://www.w3.org/2000/svg">
<path d="M5.29616 12.0108C4.15119 12.0108 3.18462 11.7579 2.39645 11.252C1.60829 10.7407 1.01184 10.0351 0.607102 9.13509C0.202367 8.23509 0 7.19663 0 6.0197C0 4.84277 0.202367 3.80431 0.607102 2.90431C1.01184 2.00431 1.60829 1.30135 2.39645 0.795429C3.18462 0.284186 4.15119 0.0285645 5.29616 0.0285645C6.63285 0.0285645 7.72457 0.372056 8.57132 1.05904C9.41807 1.7407 9.99854 2.65668 10.3127 3.80697L9.11452 4.11851C8.86954 3.20786 8.43019 2.48626 7.79647 1.95372C7.16274 1.42117 6.3293 1.1549 5.29616 1.1549C4.39616 1.1549 3.64794 1.35993 3.05149 1.76999C2.45503 2.18005 2.00503 2.75253 1.70148 3.48745C1.40326 4.21703 1.24882 5.06112 1.23817 6.0197C1.23284 6.97828 1.37929 7.82237 1.67752 8.55195C1.98107 9.28154 2.43373 9.85403 3.03551 10.2694C3.64261 10.6795 4.39616 10.8845 5.29616 10.8845C6.3293 10.8845 7.16274 10.6182 7.79647 10.0857C8.43019 9.54781 8.86954 8.82621 9.11452 7.92089L10.3127 8.23243C9.99854 9.38273 9.41807 10.3014 8.57132 10.9883C7.72457 11.67 6.63285 12.0108 5.29616 12.0108Z" fill="black"/>
<path d="M11.3638 11.7712L15.326 0.26821H16.8836L20.8458 11.7712H19.6236L15.8612 0.923241H16.3245L12.586 11.7712H11.3638ZM13.1292 8.98332V7.88095H19.0724V8.98332H13.1292Z" fill="black"/>
<path d="M22.6877 11.7712V0.26821H27.1291C27.2409 0.26821 27.3661 0.273535 27.5046 0.284186C27.6483 0.289512 27.7921 0.305488 27.9359 0.332115C28.5377 0.422648 29.0463 0.633003 29.4617 0.963182C29.8824 1.28803 30.1992 1.69809 30.4123 2.19336C30.6306 2.68863 30.7398 3.23715 30.7398 3.83893C30.7398 4.70698 30.5108 5.46053 30.0528 6.09958C29.5948 6.73864 28.9398 7.14071 28.0877 7.3058L27.6803 7.40166H23.8619V11.7712H22.6877ZM29.6534 11.7712L27.3847 7.09012L28.5111 6.65876L31.0034 11.7712H29.6534ZM23.8619 6.28331H27.0972C27.193 6.28331 27.3049 6.27799 27.4327 6.26733C27.5605 6.25668 27.6856 6.23804 27.8081 6.21142C28.2022 6.12621 28.5244 5.96378 28.7747 5.72414C29.0303 5.48449 29.2194 5.19958 29.3418 4.8694C29.4697 4.53922 29.5336 4.19573 29.5336 3.83893C29.5336 3.48212 29.4697 3.13863 29.3418 2.80845C29.2194 2.47295 29.0303 2.18537 28.7747 1.94573C28.5244 1.70608 28.2022 1.54366 27.8081 1.45845C27.6856 1.43182 27.5605 1.41585 27.4327 1.41052C27.3049 1.39987 27.193 1.39454 27.0972 1.39454H23.8619V6.28331Z" fill="black"/>
<path d="M33.1659 11.7712V0.26821H36.6568C36.7793 0.26821 36.9869 0.270873 37.2798 0.276198C37.5781 0.281523 37.863 0.302825 38.1346 0.340103C39.008 0.462588 39.7375 0.787441 40.3233 1.31466C40.9091 1.84188 41.3485 2.51289 41.6414 3.32768C41.9343 4.14248 42.0807 5.03982 42.0807 6.0197C42.0807 6.99958 41.9343 7.89692 41.6414 8.71172C41.3485 9.52651 40.9091 10.1975 40.3233 10.7247C39.7375 11.252 39.008 11.5768 38.1346 11.6993C37.8683 11.7312 37.5834 11.7526 37.2798 11.7632C36.9763 11.7685 36.7686 11.7712 36.6568 11.7712H33.1659ZM34.3801 10.6449H36.6568C36.8751 10.6449 37.1094 10.6395 37.3597 10.6289C37.6153 10.6129 37.8337 10.5863 38.0148 10.549C38.6858 10.4318 39.2263 10.1602 39.6364 9.73421C40.0517 9.30817 40.3553 8.77562 40.547 8.13657C40.7387 7.49219 40.8346 6.78657 40.8346 6.0197C40.8346 5.24751 40.7387 4.53922 40.547 3.89484C40.3553 3.25046 40.0517 2.71792 39.6364 2.29721C39.221 1.8765 38.6804 1.60756 38.0148 1.4904C37.8337 1.45312 37.6127 1.42916 37.3517 1.41851C37.0961 1.40253 36.8645 1.39454 36.6568 1.39454H34.3801V10.6449Z" fill="black"/>
<path d="M44.4592 11.7712V0.26821H46.3844V9.96586H51.4649V11.7712H44.4592Z" fill="black"/>
<path d="M53.3773 11.7712V0.26821H55.3024V11.7712H53.3773Z" fill="black"/>
<path d="M58.0947 11.7712V0.26821H60.0438L65.3799 8.37621V0.26821H67.329V11.7712H65.3799L60.0438 3.66319V11.7712H58.0947Z" fill="black"/>
<path d="M65.3932 11.7712V0.26821H67.3183V5.60432L71.9115 0.26821H74.276L69.3313 5.90787L74.6115 11.7712H72.1671L67.3183 6.40313V11.7712H65.3932Z" fill="black"/>
</svg>
